<?xml version="1.0" encoding="UTF-8" standalone="no"?>
<!-- Created with Inkscape (http://www.inkscape.org/) -->

<svg
   width="100"
   height="100"
   viewBox="0 0 26.458333 26.458333"
   version="1.1"
   id="svg1"
   inkscape:version="1.3.2 (091e20e, 2023-11-25)"
   sodipodi:docname="vanlife-logo.svg"
   xmlns:inkscape="http://www.inkscape.org/namespaces/inkscape"
   xmlns:sodipodi="http://sodipodi.sourceforge.net/DTD/sodipodi-0.dtd"
   xmlns="http://www.w3.org/2000/svg"
   xmlns:svg="http://www.w3.org/2000/svg">
  <sodipodi:namedview
     id="namedview1"
     pagecolor="#ffffff"
     bordercolor="#cccccc"
     borderopacity="1"
     inkscape:showpageshadow="0"
     inkscape:pageopacity="1"
     inkscape:pagecheckerboard="0"
     inkscape:deskcolor="#d1d1d1"
     inkscape:document-units="px"
     inkscape:zoom="3.3638608"
     inkscape:cx="45.483451"
     inkscape:cy="48.158948"
     inkscape:current-layer="layer1" />
  <defs
     id="defs1">
    <inkscape:path-effect
       effect="fillet_chamfer"
       id="path-effect16"
       is_visible="true"
       lpeversion="1"
       nodesatellites_param="F,0,0,1,0,0,0,1 @ F,0,0,1,0,0,0,1 @ F,0,0,1,0,0,0,1 @ F,0,0,1,0,0,0,1 @ F,0,0,1,0,2.2940186,0,1 @ F,0,0,1,0,0,0,1 @ F,0,0,1,0,0,0,1 @ F,0,0,1,0,0,0,1 @ F,0,0,1,0,0,0,1 @ F,0,0,1,0,0,0,1 @ F,0,0,1,0,0,0,1 @ F,0,0,1,0,0,0,1 @ F,0,0,1,0,0,0,1 @ F,0,0,1,0,0,0,1 @ F,0,0,1,0,0,0,1 @ F,0,0,1,0,0,0,1 @ F,0,0,1,0,0,0,1 @ F,0,0,1,0,0,0,1 @ F,0,0,1,0,0,0,1 @ F,0,0,1,0,0,0,1 @ F,0,0,1,0,0,0,1 @ F,0,0,1,0,0,0,1 @ F,0,0,1,0,0,0,1 @ F,0,0,1,0,2.0299459,0,1 | F,0,0,1,0,0,0,1 @ F,0,0,1,0,0,0,1 @ F,0,0,1,0,0,0,1 @ F,0,0,1,0,0,0,1 | F,0,0,1,0,0,0,1 @ F,0,0,1,0,0,0,1 @ F,0,0,1,0,0,0,1 @ F,0,0,1,0,0,0,1 | F,0,0,1,0,0,0,1 @ F,0,0,1,0,0,0,1 @ F,0,0,1,0,0,0,1 @ F,0,0,1,0,0,0,1 @ F,0,0,1,0,0,0,1 @ F,0,0,1,0,0,0,1 @ F,0,0,1,0,0,0,1 @ F,0,0,1,0,0,0,1 @ F,0,0,1,0,0,0,1"
       radius="0"
       unit="px"
       method="auto"
       mode="F"
       chamfer_steps="1"
       flexible="false"
       use_knot_distance="true"
       apply_no_radius="true"
       apply_with_radius="true"
       only_selected="false"
       hide_knots="false" />
  </defs>
  <g
     inkscape:label="Layer 1"
     inkscape:groupmode="layer"
     id="layer1">
    <circle
       style="fill:#ffffff;fill-opacity:0.996269;stroke:#ffffff;stroke-width:1.05833;stroke-linecap:round;stroke-linejoin:round;stroke-miterlimit:100;stroke-dasharray:none"
       id="circle16"
       cx="13.229166"
       cy="13.229166"
       r="12.700001" />
    <path
       id="path1"
       style="fill:#1a1a1a;fill-opacity:0.996269;stroke-width:1.05833;stroke-linecap:round;stroke-linejoin:round;stroke-miterlimit:100"
       d="M 13.229166,1.0795207 C 6.5190502,1.0793952 1.0793952,6.5190502 1.0795207,13.229166 1.0793948,19.939282 6.5190499,25.378938 13.229166,25.378812 19.939282,25.378938 25.378938,19.939282 25.378812,13.229166 25.37088,11.351072 24.92791,9.5112817 24.097462,7.8494475 23.531962,6.717808 22.884908,6.9331665 22.884908,8.200118 v 8.061422 c 2.57e-4,0.292643 -0.237041,0.529941 -0.529684,0.529683 h -1.654162 c -0.271971,-9e-4 -0.498982,-0.207802 -0.525033,-0.478524 -0.102702,-1.082991 -1.002003,-1.902876 -2.086177,-1.904276 -1.08045,0.0063 -1.97402,0.824986 -2.076359,1.904276 -0.02613,0.271509 -0.254336,0.478687 -0.5271,0.478524 H 11.339876 C 11.066915,16.791652 10.838407,16.584405 10.81226,16.312699 10.709513,15.22925 9.8114536,14.409112 8.726599,14.408423 7.6461497,14.414752 6.754646,15.23341 6.652307,16.312699 6.6261789,16.584208 6.3979709,16.791385 6.1252074,16.791223 H 4.1015584 C 3.8091177,16.791195 3.5721347,16.553981 3.5723917,16.26154 v -5.251876 c 4.15e-4,-0.08879 0.023162,-0.176042 0.066146,-0.253732 L 6.8533284,4.8963419 C 6.9467897,4.7271103 7.1250929,4.6223076 7.3184162,4.6229736 H 19.730999 c 1.121108,0 1.392955,-0.6589036 0.479347,-1.3064236 -2.027899,-1.4372737 -4.46312,-2.2278722 -6.98118,-2.2370293 z M 8.7436522,15.880684 c 0.4854625,-5.5e-5 0.8790323,0.394209 0.8790161,0.880567 1.56e-5,0.486358 -0.393554,0.880621 -0.8790161,0.880566 -0.4852603,-2.31e-4 -0.878515,-0.394411 -0.8784993,-0.880566 -1.62e-5,-0.486156 0.3932386,-0.880336 0.8784993,-0.880567 z m 9.3441328,0 c 0.485261,2.31e-4 0.878515,0.394411 0.878499,0.880567 1.6e-5,0.486155 -0.393239,0.880335 -0.878499,0.880566 -0.485462,5.5e-5 -0.879032,-0.394208 -0.879016,-0.880566 -1.6e-5,-0.486358 0.393554,-0.880622 0.879016,-0.880567 z m -11.474752,3.15433 h 13.769702 c 0.292441,2.8e-5 0.529424,0.237242 0.529167,0.529683 0,0.525943 -0.306112,0.958416 -0.714685,1.331702 -0.408576,0.373285 -0.955183,0.70562 -1.616956,0.998388 -1.323547,0.58554 -3.106706,0.999939 -5.082377,0.999939 -1.975672,0 -3.7583141,-0.414399 -5.0818603,-0.999939 C 7.7542504,21.602019 7.2055755,21.269684 6.7970011,20.896399 6.3884265,20.523113 6.0838662,20.09064 6.0838663,19.564697 6.0836093,19.272256 6.3205923,19.035042 6.613033,19.035014 Z" />
    <circle
       style="fill:#1a1a1a;fill-opacity:0.996269;stroke:#ffffff;stroke-width:1.05833;stroke-linecap:round;stroke-linejoin:round;stroke-miterlimit:100;stroke-dasharray:none"
       id="circle13"
       cx="-23.8125"
       cy="13.229166"
       r="12.700001" />
    <g
       id="g12"
       transform="matrix(1.0198848,0,0,1.0211173,-36.983589,-2.9594)"
       style="stroke-width:0.979915">
      <path
         id="path11"
         style="fill:#ffffff;fill-opacity:0.996269;stroke:#ffffff;stroke-width:1.03707;stroke-linecap:round;stroke-linejoin:round;stroke-miterlimit:100;stroke-dasharray:none"
         d="M 8.0517957,9.3049104 5.4059624,14.115069 v 4.312735 h 1.6644978 c 0.1049592,-1.104885 1.0300759,-1.950469 2.1399211,-1.955953 1.1134117,7.06e-4 2.0439137,0.847532 2.1492227,1.955953 h 3.412194 c 0.104959,-1.104885 1.030076,-1.950469 2.139921,-1.955953 1.11361,4.39e-4 2.044413,0.847335 2.14974,1.955953 h 1.361157 V 9.3049104 Z"
         sodipodi:nodetypes="cccccccccccc" />
      <circle
         style="fill:#ffffff;fill-opacity:0.996269;stroke:none;stroke-width:1.03707;stroke-linecap:round;stroke-linejoin:round;stroke-miterlimit:100;stroke-dasharray:none"
         id="circle11"
         cx="9.2245407"
         cy="18.837715"
         r="0.72302425" />
      <circle
         style="fill:#ffffff;fill-opacity:0.996269;stroke:none;stroke-width:1.03707;stroke-linecap:round;stroke-linejoin:round;stroke-miterlimit:100;stroke-dasharray:none"
         id="circle12"
         cx="16.910954"
         cy="18.837715"
         r="0.72302425" />
      <path
         id="path12"
         style="fill:#ffffff;fill-opacity:0.996269;stroke:#ffffff;stroke-width:1.03707;stroke-linecap:round;stroke-linejoin:round;stroke-miterlimit:100"
         d="m 18.798465,21.140192 c 0,0.977395 -2.535472,2.298897 -5.663136,2.298897 -3.127665,0 -5.6631362,-1.321502 -5.663136,-2.298897 z"
         sodipodi:nodetypes="cscc" />
    </g>
  </g>
</svg>
